<?xml version="1.0" encoding="UTF-8" standalone="no"?>
<!-- Created with Inkscape (http://www.inkscape.org/) -->

<svg
   version="1.1"
   id="svg1"
   width="236.37466"
   height="60.515999"
   viewBox="0 0 236.37466 60.515999"
   sodipodi:docname="1310 Logo white on trans.eps"
   xmlns:inkscape="http://www.inkscape.org/namespaces/inkscape"
   xmlns:sodipodi="http://sodipodi.sourceforge.net/DTD/sodipodi-0.dtd"
   xmlns="http://www.w3.org/2000/svg"
   xmlns:svg="http://www.w3.org/2000/svg">
  <defs
     id="defs1" />
  <sodipodi:namedview
     id="namedview1"
     pagecolor="#ffffff"
     bordercolor="#000000"
     borderopacity="0.25"
     inkscape:showpageshadow="2"
     inkscape:pageopacity="0.0"
     inkscape:pagecheckerboard="0"
     inkscape:deskcolor="#d1d1d1">
    <inkscape:page
       x="-187.58533"
       y="-279.01868"
       inkscape:label="1"
       id="page1"
       width="613.33331"
       height="620"
       margin="0"
       bleed="0" />
  </sodipodi:namedview>
  <g
     id="g1"
     inkscape:groupmode="layer"
     inkscape:label="1"
     transform="translate(-187.58533,-279.01868)">
    <g
       id="group-R5">
      <path
         id="path2"
         d="M 2657.18,2556.33 V 2113.8 h -51.56 v 394.65 h -99.59 l 29.46,47.88 h 121.69"
         style="fill:#ffffff;fill-opacity:1;fill-rule:nonzero;stroke:none"
         transform="matrix(0.13333333,0,0,-0.13333333,0,620)" />
      <path
         id="path3"
         d="m 2447.7,2556.33 v -12.52 l -130.52,-170.29 h 0.74 c 83.23,0 137.89,-51.71 137.89,-134.36 0,-76.6 -59.09,-135.67 -161.61,-135.67 -95.76,0 -156.3,60.54 -157.77,62.02 l 25.77,39.77 c 0,0 55.39,-53.03 130.52,-53.03 67.92,0 110.63,36.83 110.63,86.91 0,56.13 -38.3,91.48 -100.17,91.48 h -64.22 v 16.95 l 122.41,160.86 h -205.79 v 47.88 h 292.12"
         style="fill:#ffffff;fill-opacity:1;fill-rule:nonzero;stroke:none"
         transform="matrix(0.13333333,0,0,-0.13333333,0,620)" />
      <path
         id="path4"
         d="M 2056.73,2556.33 V 2113.8 h -51.71 v 394.65 h -99.59 l 29.47,47.88 h 121.83"
         style="fill:#ffffff;fill-opacity:1;fill-rule:nonzero;stroke:none"
         transform="matrix(0.13333333,0,0,-0.13333333,0,620)" />
      <path
         id="path5"
         d="m 3127.85,2335.8 c 0,93.84 -76.02,169.85 -169.71,169.85 -93.84,0 -169.85,-76.01 -169.85,-169.85 0,-93.84 76.01,-169.85 169.85,-169.85 93.69,0 169.71,76.01 169.71,169.85 z m -169.71,221.56 c 122.28,0 221.56,-99.14 221.56,-221.56 0,-122.41 -99.28,-221.56 -221.56,-221.56 -122.41,0 -221.56,99.15 -221.56,221.56 0,122.42 99.15,221.56 221.56,221.56"
         style="fill:#ffffff;fill-opacity:1;fill-rule:nonzero;stroke:none"
         transform="matrix(0.13333333,0,0,-0.13333333,0,620)" />
      <path
         id="path6"
         d="m 1433.55,2104.37 231.67,216.25 -27.08,29.17 -231.25,-215.83 26.66,-29.59"
         style="fill:#ffffff;fill-opacity:1;fill-rule:nonzero;stroke:none"
         transform="matrix(0.13333333,0,0,-0.13333333,0,620)" />
      <path
         id="path7"
         d="m 1603.55,2143.12 6.67,-7.08 189.58,175.42 -6.66,7.08 -189.59,-175.42"
         style="fill:#ffffff;fill-opacity:1;fill-rule:nonzero;stroke:none"
         transform="matrix(0.13333333,0,0,-0.13333333,0,620)" />
      <path
         id="path8"
         d="m 1486.05,2318.54 189.59,175 -13.34,15 -190,-175.42 13.75,-14.58"
         style="fill:#ffffff;fill-opacity:1;fill-rule:nonzero;stroke:none"
         transform="matrix(0.13333333,0,0,-0.13333333,0,620)" />
    </g>
  </g>
</svg>
