<?xml version="1.0" standalone="no"?>
<!DOCTYPE svg PUBLIC "-//W3C//DTD SVG 20010904//EN"
 "http://www.w3.org/TR/2001/REC-SVG-20010904/DTD/svg10.dtd">
<svg version="1.0" xmlns="http://www.w3.org/2000/svg"
 width="672.000000pt" height="411.000000pt" viewBox="0 0 672.000000 411.000000"
 preserveAspectRatio="xMidYMid meet">

<g transform="translate(0.000000,411.000000) scale(0.100000,-0.100000)"
fill="#ffffff" stroke="none">
<path d="M1215 3995 c-79 -17 -159 -53 -218 -98 l-47 -37 -229 0 c-200 0 -237
-2 -293 -20 -175 -54 -318 -212 -363 -401 -22 -96 -22 -1682 0 -1797 30 -148
125 -292 242 -365 94 -59 141 -67 396 -67 l234 0 39 -31 c96 -77 214 -118 364
-126 181 -10 430 25 786 112 640 156 874 199 1149 211 289 14 547 -24 1150
-166 589 -139 748 -165 965 -157 164 5 260 30 358 89 117 72 100 68 307 68
217 -1 257 7 351 68 124 81 206 198 245 350 18 71 19 118 19 907 0 796 -1 835
-20 909 -42 167 -148 300 -294 372 l-80 39 -223 3 -222 3 -65 44 c-127 85
-237 111 -429 102 -179 -8 -256 -23 -738 -138 -674 -160 -886 -194 -1209 -194
-321 0 -457 22 -1131 180 -402 95 -508 117 -660 139 -127 19 -301 19 -384 1z
m335 -196 c125 -15 356 -63 600 -124 834 -209 1193 -246 1666 -175 194 30 457
86 819 175 171 41 371 87 445 102 157 30 350 41 431 24 74 -15 168 -61 216
-104 l39 -36 234 -3 c233 -3 235 -3 286 -30 65 -34 127 -104 156 -177 l23 -56
0 -866 0 -865 -38 -76 c-38 -77 -73 -114 -147 -154 -31 -17 -65 -20 -271 -24
l-236 -5 -41 -37 c-173 -157 -449 -155 -1142 8 -768 180 -880 198 -1225 198
-304 0 -435 -19 -960 -140 -700 -162 -775 -176 -980 -178 -189 -1 -261 21
-376 116 l-45 38 -247 0 c-224 0 -251 2 -301 20 -99 38 -173 136 -196 262 -7
35 -9 354 -8 884 l3 829 26 56 c35 73 90 134 153 167 51 27 51 27 310 30 l258
3 51 40 c129 102 259 128 497 98z"/>
<path d="M620 3010 c-33 -33 -20 -101 24 -122 14 -6 30 -24 36 -41 6 -18 10
-132 10 -282 0 -288 -7 -327 -64 -380 -28 -26 -36 -40 -36 -68 0 -70 -10 -68
399 -65 352 3 368 4 413 25 115 53 177 138 186 253 8 121 -40 210 -137 252
l-43 18 45 40 c52 46 70 89 69 165 -1 94 -65 176 -161 206 -23 8 -158 13 -378
16 -333 3 -343 3 -363 -17z m510 -145 c55 -28 76 -108 47 -178 -18 -42 -39
-58 -86 -67 -39 -7 -39 -7 -45 29 -8 49 -8 216 1 224 11 12 53 8 83 -8z m32
-411 c32 -16 43 -35 52 -86 14 -80 -26 -150 -94 -163 -64 -11 -74 6 -78 134
-2 61 -2 117 1 125 7 17 77 11 119 -10z"/>
<path d="M1935 3025 c-5 -3 -75 -14 -155 -25 -152 -22 -170 -30 -170 -77 0
-13 16 -41 35 -62 20 -22 40 -54 45 -73 14 -45 13 -509 0 -544 -6 -15 -26 -45
-45 -66 -37 -40 -41 -60 -25 -103 l10 -25 231 2 232 3 10 28 c13 39 2 71 -34
105 -17 16 -34 45 -39 68 -5 21 -10 199 -10 395 0 262 -3 358 -12 367 -11 11
-51 15 -73 7z"/>
<path d="M3340 3024 c-14 -3 -79 -12 -145 -20 -66 -9 -130 -23 -142 -31 -37
-22 -30 -66 20 -120 l42 -46 3 -271 c2 -256 1 -273 -18 -303 -32 -53 -96 -41
-120 21 -6 16 -10 123 -10 260 0 195 -2 236 -15 246 -12 10 -49 7 -186 -14
-95 -14 -178 -31 -185 -37 -28 -23 -16 -69 29 -110 l42 -39 0 -128 c0 -139
-10 -171 -60 -194 -32 -14 -78 5 -94 38 -7 16 -11 104 -11 248 0 190 -2 226
-15 236 -23 19 -364 -33 -383 -58 -21 -27 -6 -73 38 -113 l40 -37 0 -113 c1
-207 26 -302 92 -352 47 -35 91 -47 168 -47 81 0 120 12 183 56 26 19 49 34
52 34 3 0 5 -11 5 -24 0 -56 -2 -56 415 -56 370 0 385 1 395 19 18 35 12 91
-15 122 -32 39 -38 76 -33 210 3 108 4 112 32 136 23 19 36 24 60 19 68 -13
101 -91 94 -221 -4 -68 -10 -90 -42 -152 -35 -66 -37 -73 -24 -100 l13 -28
210 -2 c116 -2 216 1 223 5 7 5 15 25 19 45 5 32 2 39 -38 76 l-44 40 -6 183
c-6 207 -17 248 -81 304 -56 49 -115 67 -200 62 -77 -5 -118 -21 -180 -70
l-38 -30 0 165 c0 91 -3 172 -6 181 -6 16 -28 18 -84 10z"/>
<path d="M5140 3026 c-3 -2 -68 -14 -144 -26 -77 -11 -146 -26 -153 -32 -7 -6
-13 -27 -13 -46 0 -30 7 -43 43 -73 l42 -37 3 -265 c3 -229 1 -270 -13 -297
-32 -61 -101 -65 -132 -7 -13 25 -18 69 -23 192 -8 210 -27 252 -138 307 -42
20 -61 23 -177 23 -112 -1 -138 -4 -188 -24 -84 -33 -139 -79 -157 -129 -13
-39 -13 -43 6 -69 43 -57 137 -52 216 12 69 55 84 61 108 40 14 -13 20 -31 20
-60 l0 -43 -82 -12 c-203 -31 -308 -115 -308 -246 0 -96 38 -152 123 -180 94
-31 204 -8 273 58 l31 29 22 -34 c12 -20 35 -40 53 -46 46 -16 740 -15 756 1
7 7 12 31 12 54 0 35 -5 47 -32 69 -18 15 -37 37 -43 49 -5 11 -12 194 -15
406 l-5 385 -40 3 c-23 2 -43 1 -45 -2z m-716 -797 c-25 -28 -79 -25 -99 5
-30 46 10 106 83 125 27 8 27 7 30 -52 2 -45 -1 -64 -14 -78z"/>
<path d="M5339 2981 c-40 -40 -39 -82 1 -123 27 -27 36 -30 72 -25 51 7 77 37
78 90 0 82 -91 117 -151 58z m116 -11 c19 -21 16 -79 -6 -106 -31 -38 -119 4
-119 57 0 61 84 94 125 49z"/>
<path d="M5366 2964 c-11 -29 -7 -86 7 -81 7 2 11 18 9 40 -3 39 7 47 28 22 9
-10 9 -15 1 -15 -16 0 -14 -23 5 -46 15 -19 15 -18 9 3 -3 12 -1 24 5 28 20
12 10 45 -16 55 -34 13 -41 13 -48 -6z"/>
<path d="M5600 2751 c-120 -39 -201 -106 -244 -201 -87 -193 -4 -409 183 -481
78 -30 222 -37 316 -15 188 45 309 209 292 396 -13 148 -130 273 -287 309 -70
16 -198 12 -260 -8z m139 -176 c17 -8 39 -34 52 -62 20 -41 24 -63 24 -149 0
-86 -3 -105 -19 -123 -22 -24 -35 -26 -70 -9 -35 15 -66 84 -78 174 -12 87 -5
137 23 165 23 23 31 23 68 4z"/>
<path d="M402 682 c-100 -36 -155 -122 -153 -240 2 -146 86 -238 226 -250 58
-4 94 5 166 45 4 2 9 -5 12 -17 11 -44 27 -19 27 44 0 35 3 71 6 80 14 36 -13
12 -41 -36 -35 -61 -78 -90 -138 -90 -92 -2 -157 58 -178 164 -32 159 42 288
166 288 71 0 112 -28 150 -105 l30 -60 3 89 c2 79 -4 119 -15 91 -13 -35 -20
-37 -61 -16 -60 31 -136 35 -200 13z"/>
<path d="M3540 681 c-139 -50 -198 -218 -128 -368 50 -107 202 -153 323 -97
22 10 43 20 47 22 3 1 9 -6 13 -17 14 -44 25 -18 25 59 0 44 -3 80 -7 80 -5
-1 -18 -23 -31 -50 -29 -62 -75 -92 -141 -92 -52 0 -94 17 -128 54 -75 80 -68
280 12 358 83 80 234 35 264 -78 19 -68 31 -49 31 48 0 85 -11 115 -25 70 -8
-25 -15 -25 -57 0 -51 30 -132 34 -198 11z"/>
<path d="M4298 687 c-40 -11 -51 -27 -18 -27 18 0 19 -9 22 -187 4 -237 3
-241 -30 -256 -27 -11 -26 -11 16 -15 23 -2 61 -2 85 0 l42 3 -27 14 -28 14 0
234 c0 180 -3 233 -12 232 -7 -1 -30 -6 -50 -12z"/>
<path d="M6248 687 c-42 -12 -48 -22 -18 -30 18 -5 20 -14 20 -86 l0 -81 -26
10 c-138 53 -258 -87 -195 -227 34 -74 107 -101 179 -64 49 25 52 25 52 6 0
-11 12 -15 45 -15 49 0 56 8 25 28 -19 12 -20 23 -20 242 0 178 -3 230 -12
229 -7 -1 -30 -6 -50 -12z m-49 -208 c41 -14 51 -41 51 -132 0 -86 -21 -117
-80 -117 -56 0 -83 35 -88 113 -3 69 19 120 61 137 12 5 22 9 23 9 1 1 16 -4
33 -10z"/>
<path d="M1896 664 c-30 -30 -13 -74 29 -74 27 0 45 18 45 45 0 42 -44 59 -74
29z"/>
<path d="M2402 668 c-28 -28 -7 -78 33 -78 27 0 45 18 45 45 0 12 -5 26 -12
33 -7 7 -21 12 -33 12 -12 0 -26 -5 -33 -12z"/>
<path d="M4675 656 c-23 -34 -5 -66 35 -66 44 0 64 44 34 74 -23 23 -51 20
-69 -8z"/>
<path d="M1707 554 c-15 -25 -36 -48 -47 -51 -28 -8 -25 -23 5 -23 l25 0 0
-120 c0 -115 1 -122 25 -145 27 -28 46 -30 94 -14 39 14 41 34 2 26 -51 -10
-61 13 -61 141 l0 112 40 0 c30 0 40 4 40 16 0 13 -8 15 -40 10 l-40 -5 0 49
c0 28 -3 50 -7 50 -5 0 -20 -21 -36 -46z"/>
<path d="M4507 575 c-11 -17 -35 -45 -55 -62 l-37 -33 26 0 27 0 3 -123 c3
-83 8 -129 17 -140 22 -26 66 -30 108 -11 l39 18 -40 4 c-58 5 -65 20 -65 143
l0 108 35 3 c45 4 45 23 0 22 l-34 -1 -3 51 -3 50 -18 -29z"/>
<path d="M5542 568 c-13 -21 -34 -46 -48 -57 -29 -23 -30 -31 -5 -31 17 0 19
-10 22 -121 4 -119 4 -121 33 -146 24 -20 36 -24 65 -19 19 3 42 12 50 21 14
13 11 15 -25 15 -22 0 -45 5 -52 12 -8 8 -12 50 -12 124 l0 113 43 3 c24 2 40
7 37 13 -3 6 -22 9 -42 7 l-37 -2 -3 52 -3 53 -23 -37z"/>
<path d="M2606 556 c-10 -18 -29 -39 -42 -46 -30 -17 -31 -30 -1 -30 22 0 22
-2 22 -126 0 -122 1 -126 25 -146 29 -23 92 -20 119 6 14 15 12 16 -27 16 -55
0 -62 15 -62 143 l0 105 51 4 c29 1 58 -1 65 -7 7 -5 40 -72 74 -147 l61 -138
-21 -40 c-12 -23 -32 -45 -45 -50 -33 -13 -49 -44 -30 -60 21 -17 47 -9 62 20
7 14 52 114 99 222 60 136 92 199 105 203 11 4 19 11 19 17 0 6 -21 8 -56 4
-53 -5 -87 -16 -50 -16 9 0 19 -6 22 -14 5 -13 -66 -206 -76 -206 -6 0 -80
180 -80 194 0 5 8 15 18 22 20 16 26 15 -115 17 l-103 1 0 43 c0 52 -9 54 -34
9z"/>
<path d="M4715 509 c-11 -4 -32 -8 -47 -8 -35 -1 -36 -17 -3 -25 25 -6 25 -7
25 -115 0 -117 -4 -141 -25 -141 -8 0 -17 -4 -20 -10 -4 -6 22 -10 69 -10 44
0 76 4 76 10 0 6 -6 10 -14 10 -26 0 -30 23 -27 156 1 73 -1 134 -6 137 -4 2
-17 1 -28 -4z"/>
<path d="M773 503 c-38 -5 -44 -20 -10 -25 21 -3 22 -7 25 -118 l3 -115 -28
-22 -28 -23 83 0 c48 0 82 4 82 10 0 6 -9 10 -19 10 -26 0 -31 19 -31 114 0
69 4 88 21 110 23 29 44 34 53 10 3 -9 15 -14 28 -12 18 2 23 9 23 33 0 29 -2
30 -42 29 -32 0 -47 -7 -62 -25 l-20 -24 -1 28 c0 29 -2 29 -77 20z"/>
<path d="M1100 503 c-106 -42 -123 -225 -27 -288 60 -39 167 -22 202 31 24 36
11 41 -25 10 -37 -31 -93 -35 -129 -10 -26 19 -51 71 -51 109 l0 25 104 0 c58
0 107 3 109 8 8 15 -14 69 -38 92 -18 17 -39 24 -77 26 -29 2 -60 1 -68 -3z
m95 -38 c14 -13 25 -32 25 -42 0 -15 -8 -18 -48 -17 -96 1 -101 2 -95 24 7 26
50 60 75 60 10 0 30 -11 43 -25z"/>
<path d="M1382 490 c-27 -16 -33 -26 -30 -48 4 -39 39 -37 53 3 12 35 22 45
52 45 31 0 53 -26 53 -64 0 -31 -3 -34 -70 -60 -83 -33 -114 -66 -106 -111 12
-61 70 -79 137 -43 45 24 47 24 58 6 9 -15 21 -18 53 -16 45 3 67 28 25 28
-33 0 -37 14 -37 131 0 93 -2 102 -25 124 -32 33 -114 35 -163 5z m128 -180
c0 -42 -4 -52 -24 -66 -34 -21 -67 -14 -85 18 -14 24 -14 28 4 49 20 22 69 48
93 49 8 0 12 -16 12 -50z"/>
<path d="M1888 503 c-33 -5 -37 -18 -8 -26 19 -5 20 -14 20 -127 0 -113 -1
-122 -20 -127 -44 -12 -16 -23 55 -23 41 0 75 2 75 5 0 3 -11 10 -25 15 l-25
10 0 140 c0 156 6 145 -72 133z"/>
<path d="M2025 500 c-29 -7 -30 -7 -7 -16 17 -7 39 -45 82 -139 58 -128 80
-160 98 -140 5 6 24 44 42 85 74 169 89 200 99 200 6 0 11 4 11 10 0 5 -21 8
-47 6 -61 -5 -61 -5 -40 -17 23 -13 22 -18 -14 -107 -17 -43 -35 -88 -41 -102
-9 -23 -13 -17 -49 70 -54 131 -53 127 -27 133 12 4 19 9 16 12 -9 9 -89 12
-123 5z"/>
<path d="M2403 503 c-37 -5 -43 -18 -13 -26 19 -5 20 -14 20 -127 0 -113 -1
-122 -20 -127 -44 -12 -16 -23 55 -23 41 0 75 2 75 5 0 3 -11 10 -25 15 l-25
10 0 140 c0 155 6 142 -67 133z"/>
<path d="M3908 503 c-32 -5 -37 -18 -9 -26 21 -5 30 -57 29 -163 0 -34 5 -70
11 -81 25 -47 112 -54 164 -13 26 20 26 20 32 0 5 -16 15 -20 50 -20 50 0 68
15 30 24 l-25 6 0 141 0 140 -57 -7 c-64 -7 -74 -11 -49 -19 9 -3 23 -7 31
-10 12 -3 15 -24 15 -100 0 -91 -1 -97 -26 -120 -35 -33 -87 -34 -108 -3 -12
17 -16 50 -16 140 0 131 6 123 -72 111z"/>
<path d="M4813 499 c-16 -5 -16 -7 -1 -15 9 -5 43 -70 75 -144 76 -177 79
-177 153 -6 31 71 67 137 78 147 28 22 28 30 0 25 -13 -3 -39 -5 -58 -6 -29 0
-32 -2 -17 -11 24 -14 21 -32 -23 -134 -36 -83 -39 -88 -48 -65 -6 14 -24 56
-41 93 -36 79 -37 92 -13 106 9 6 13 11 7 12 -23 5 -97 4 -112 -2z"/>
<path d="M5208 494 c-32 -17 -48 -62 -27 -75 23 -14 29 -11 45 26 27 66 114
52 114 -19 0 -32 -3 -34 -72 -61 -94 -36 -108 -49 -108 -96 0 -73 75 -101 143
-54 36 24 37 24 47 5 7 -14 21 -20 45 -20 61 0 92 26 38 32 l-28 3 -5 110 c-6
123 -12 143 -47 156 -36 14 -114 10 -145 -7z m132 -184 c0 -45 -3 -51 -31 -65
-56 -29 -99 -5 -85 49 5 19 19 33 49 46 62 29 67 27 67 -30z"/>
<path d="M5762 491 c-53 -34 -74 -76 -70 -146 5 -76 31 -117 93 -140 58 -23
106 -13 153 30 44 40 36 59 -8 21 -37 -31 -93 -35 -129 -10 -26 19 -51 71 -51
109 l0 25 105 0 105 0 0 30 c0 18 -11 42 -28 61 -24 27 -37 33 -83 36 -42 3
-61 0 -87 -16z m119 -22 c11 -11 19 -30 17 -42 -3 -20 -9 -22 -73 -22 -64 0
-70 2 -67 20 4 28 48 65 78 65 13 0 33 -9 45 -21z"/>
<path d="M6422 268 c-21 -26 -17 -51 10 -67 22 -13 29 -13 42 -2 22 18 20 58
-3 71 -26 13 -36 13 -49 -2z"/>
<path d="M3040 249 c-9 -16 -8 -25 6 -40 20 -22 34 -24 59 -6 13 10 16 21 11
40 -5 22 -12 27 -36 27 -19 0 -33 -7 -40 -21z"/>
</g>
</svg>
