<svg fill="none" height="53" viewBox="0 0 170 53" width="170" xmlns="http://www.w3.org/2000/svg"><path clip-rule="evenodd" d="m170 9.4983s-16.982-8.820364-31.037-9.482359c-5.048-.23825-9.823 2.237849-13.084 4.499529-.51-.03915-1.017-.07488-1.521-.09701-7.386-.34886-14.329 3.73713-18.558 6.91094-7.9864 1.889-14.7953 7.1356-17.9095 9.8619l-.0136.1633c8.9718-7.5729 19.2401-7.6903 19.2401-7.6903 18.155-.9122 40.088 10.9288 40.088 10.9288l12.807.548s-25.944-13.4747-47.42-14.489c-2.059-.097-4.089.1021-6.055.5105 6.683-4.08594 13.128-4.16253 13.128-4.16253 1.029-.05105 2.076-.05275 3.126-.01361l-.002.03404c.009-.00872.018-.01561.028-.02268l.011-.00796c14.847.54458 31.233 9.38704 31.233 9.38704l10.99.4714s-20.641-10.71614-38.624-12.28689c4.697-2.51694 8.954-2.5748 8.954-2.5748 11.881-.59733 26.238 7.15091 26.238 7.15091zm-162.08669 16.7183h-7.91331v11.014h1.2423v-4.799h5.96307v-1.1334h-5.96307v-3.9328h6.67101zm6.38849-.0782h-1.164l-5.02028 11.0922h1.27464l1.30524-2.91h5.9937l1.29 2.91h1.3376zm1.9026 7.0641h-5.0186l2.5187-5.6159zm14.3971 4.0281-3.3831-4.4995c1.7307-.3148 2.9883-1.3853 2.9883-3.2266 0-1.9826-1.5571-3.2879-3.9805-3.2879h-4.7343v11.014h1.2423v-4.28h3.1466l3.1942 4.28zm-1.6524-7.6784c0 1.4312-1.1793 2.282-2.8318 2.282h-3.3831v-4.4688h3.3984c1.7784 0 2.8165.8168 2.8165 2.1868zm5.0815-3.3356 6.9365 8.8251v-8.8251h1.2117v11.014h-.9905l-7.1117-9.0297v9.0297h-1.21v-11.014zm15.9543 0h-4.6884v11.014h4.8943c2.4063 0 3.9958-1.1164 3.9958-3.0207 0-1.5248-1.0534-2.2803-2.3587-2.6735.8645-.3778 1.7461-1.118 1.7461-2.5646-.0017-1.6864-1.4176-2.7552-3.5891-2.7552zm-.2042 4.9097h-3.2572v-3.7916h3.3508c1.5724 0 2.4386.708 2.4386 1.809 0 1.3053-1.0381 1.9826-2.5322 1.9826zm.439 4.9879h-3.698v-3.8868h3.4785c1.9196 0 2.9254.6926 2.9254 1.9043.0017 1.2423-1.0381 1.9825-2.7059 1.9825zm17.1813-4.4059c0-3.053-2.2498-5.6805-5.6006-5.6805s-5.6329 2.6581-5.6329 5.7111c0 3.0531 2.2514 5.6806 5.6023 5.6806 3.3491-.0017 5.6312-2.6599 5.6312-5.7112zm-1.2917.0306c0 2.5187-1.7937 4.5319-4.3106 4.5319-2.5187 0-4.343-2.0438-4.343-4.5625 0-2.5169 1.7937-4.5318 4.3124-4.5318 2.5169 0 4.3412 2.0455 4.3412 4.5624zm13.0272 5.4917-3.3832-4.4995c1.7308-.3148 2.9901-1.3853 2.9901-3.2266 0-1.9826-1.5572-3.2879-3.9805-3.2879h-4.7344v11.014h1.2423v-4.28h3.1466l3.1943 4.28zm-1.6507-7.6784c0 1.4312-1.1794 2.282-2.8318 2.282h-3.3832v-4.4688h3.3985c1.7784 0 2.8165.8168 2.8165 2.1868zm14.6626 2.1561c0-3.053-2.2498-5.6805-5.6006-5.6805s-5.6329 2.6581-5.6329 5.7111c0 3.0531 2.2497 5.6806 5.6005 5.6806 3.3509 0 5.633-2.6599 5.633-5.7112zm-1.2883.0306c0 2.5187-1.7937 4.5319-4.3123 4.5319-2.517 0-4.3413-2.0438-4.3413-4.5625 0-2.5169 1.792-4.5318 4.3106-4.5318 2.517 0 4.343 2.0455 4.343 4.5624zm12.9149-5.5223h-1.242v6.4039c0 2.4063-1.29 3.635-3.3205 3.635-2.1085 0-3.3679-1.3376-3.3679-3.7133v-6.3256h-1.2423v6.4039c0 3.1159 1.8567 4.7837 4.5795 4.7837 2.7532 0 4.5932-1.6678 4.5932-4.8773zm12.477 9.5181v-4.3889h-4.547v1.1164h3.351v2.7382c-.755.6143-1.92 1.1027-3.177 1.1027-2.675 0-4.358-1.9519-4.358-4.5948 0-2.471 1.746-4.5318 4.184-4.5318 1.557 0 2.502.519 3.351 1.2576l.803-.9428c-1.101-.9275-2.249-1.4635-4.106-1.4635-3.303 0-5.522 2.6752-5.522 5.7111 0 3.1637 2.139 5.6806 5.6 5.6806 1.857-.0017 3.399-.7709 4.421-1.6848zm10.4-3.4614v4.9556h1.242v-11.014h-1.242v4.8944h-6.356v-4.8944h-1.242v11.014h1.242v-4.9556zm-121.54834 9.3343h1.16402l5.01862 11.0923h-1.33765l-1.28996-2.9118h-5.99539l-1.30527 2.9118h-1.27464zm-1.95195 7.0641h5.01857l-2.49992-5.6159zm11.65729 4.0282h-1.2424v-11.014h1.2424zm8.9531-4.4996 3.3831 4.4996v.0017h-1.5265l-3.1943-4.28h-3.1466v4.28h-1.2423v-11.014h4.7344c2.4234 0 3.9805 1.3053 3.9805 3.2879 0 1.8396-1.2576 2.91-2.9883 3.2248zm-1.1011-.8985c1.6524 0 2.8318-.8492 2.8318-2.2804 0-1.3682-1.0381-2.1868-2.8165-2.1868h-3.3985v4.4672zm10.871-5.6159c2.4863 0 4.1217 1.3223 4.1217 3.5091 0 2.391-1.9808 3.618-4.3276 3.6197h-2.6735v3.8852h-1.2423v-11.014zm-.1566 5.9937c1.8244 0 3.0207-.9751 3.0207-2.4387 0-1.5877-1.1793-2.4063-2.956-2.408h-2.7858v4.8467zm11.6896-6.1826c3.3491 0 5.6006 2.6276 5.6006 5.6806 0 3.0513-2.2821 5.7112-5.6329 5.7112s-5.6006-2.6276-5.6006-5.6806 2.2821-5.7112 5.6329-5.7112zm0 10.2431c2.517 0 4.3107-2.0133 4.3107-4.5319 0-2.5169-1.8261-4.5625-4.3413-4.5625-2.5187 0-4.3123 2.0132-4.3123 4.5319 0 2.5169 1.8243 4.5625 4.3429 4.5625zm13.9547-3.5398 3.3831 4.4996v.0017h-1.5265l-3.1942-4.28h-3.1466v4.28h-1.2423v-11.014h4.7343c2.4234 0 3.9805 1.3053 3.9805 3.2879 0 1.8396-1.2576 2.91-2.9883 3.2248zm-1.1011-.8985c1.6525 0 2.8318-.8492 2.8318-2.2804 0-1.3682-1.0381-2.1868-2.8165-2.1868h-3.3984v4.4672zm14.5061-4.4672h-3.698v9.8653h-1.2577v-9.8653h-3.6979v-1.1487h8.6536z" fill="#fff" fill-rule="evenodd"/></svg>