<?xml version="1.0" standalone="no"?>
<!DOCTYPE svg PUBLIC "-//W3C//DTD SVG 20010904//EN"
 "http://www.w3.org/TR/2001/REC-SVG-20010904/DTD/svg10.dtd">
<svg version="1.0" xmlns="http://www.w3.org/2000/svg"
 width="110.000000pt" height="200.000000pt" viewBox="0 0 110.000000 200.000000"
 preserveAspectRatio="xMidYMid meet">

<g transform="translate(0.000000,200.000000) scale(0.100000,-0.100000)"
fill="#ffffff" stroke="none">
<path d="M1020 1971 c0 -17 -9 -60 -21 -94 -52 -157 -148 -274 -333 -405 -102
-73 -118 -88 -140 -136 -14 -30 -26 -59 -26 -65 0 -17 -49 -68 -71 -74 l-21
-6 22 24 c12 13 33 54 47 92 39 109 66 145 183 247 110 97 179 176 199 229 18
46 14 104 -9 127 -28 28 -42 26 -30 -6 28 -73 -56 -204 -226 -353 -104 -91
-125 -120 -149 -206 -35 -129 -58 -149 -63 -57 -4 61 17 106 80 178 24 27 52
60 61 74 22 32 22 88 0 112 -17 19 -16 19 8 13 35 -9 99 18 99 41 0 14 -3 15
-12 6 -18 -18 -45 -15 -138 13 -101 30 -114 31 -140 5 -24 -24 -48 -26 -56 -5
-8 21 -24 19 -24 -3 0 -11 -11 -24 -25 -30 -36 -16 -32 -35 5 -27 24 5 30 3
30 -10 0 -8 -10 -20 -22 -25 -13 -5 -17 -9 -10 -9 14 -1 15 -10 3 -30 -6 -9
-14 -10 -27 -3 -26 13 -92 -14 -76 -30 9 -9 18 -8 37 0 40 19 53 14 21 -7 -37
-25 -52 -49 -37 -64 13 -13 37 5 58 47 9 18 18 26 20 18 8 -22 41 -34 63 -22
11 6 20 15 20 21 0 6 -4 8 -9 5 -5 -3 -19 3 -32 13 -19 15 -21 21 -11 34 19
23 90 31 118 12 49 -32 25 -74 -102 -179 -128 -105 -173 -177 -174 -276 0 -69
16 -113 61 -164 51 -57 132 -100 247 -129 79 -21 86 -25 94 -52 5 -17 6 -48 3
-69 -6 -39 -6 -40 14 -22 20 18 20 18 27 -10 22 -100 38 -152 55 -185 21 -42
13 -54 -26 -39 -34 13 -75 13 -75 0 0 -5 -6 -10 -14 -10 -16 0 -42 -28 -33
-36 3 -3 15 -1 26 6 20 10 21 9 15 -14 -7 -31 -2 -32 33 -8 34 21 200 25 225
4 13 -10 18 -9 29 4 11 14 10 18 -6 30 -10 8 -35 14 -56 14 -20 0 -42 6 -48
14 -15 18 -51 161 -51 202 0 32 1 33 26 23 38 -14 41 -5 11 31 -28 33 -47 87
-47 135 0 24 -12 43 -56 85 -53 52 -104 136 -103 170 0 8 11 -7 25 -34 14 -26
62 -86 107 -132 87 -89 116 -137 118 -194 l1 -35 11 33 c7 24 7 48 -3 90 -12
53 -19 63 -116 158 -57 56 -104 108 -104 115 0 7 12 1 28 -14 37 -36 109 -67
156 -67 23 0 53 9 74 22 l35 21 -86 18 c-47 9 -93 22 -104 27 -17 10 -17 11 2
17 36 11 68 30 69 40 1 6 -19 13 -44 16 -29 4 -35 7 -17 7 35 2 83 27 90 47 6
13 -2 14 -51 10 -53 -4 -54 -4 -20 6 37 11 95 55 85 65 -3 3 -29 -2 -58 -10
-72 -22 -73 -20 -7 14 32 17 59 39 63 51 10 29 1 33 -35 14 -65 -34 -49 -7 27
42 154 102 257 214 323 354 36 77 40 137 10 164 -20 18 -20 17 -20 -14z m-610
-281 c0 -5 -9 -10 -20 -10 -11 0 -20 5 -20 10 0 6 9 10 20 10 11 0 20 -4 20
-10z m-70 -29 c0 -9 -24 -21 -41 -21 -5 0 -9 7 -9 15 0 9 9 15 25 15 14 0 25
-4 25 -9z m-31 -337 c-46 -102 -14 -237 72 -306 47 -38 44 -46 -8 -20 -109 57
-160 178 -118 279 17 40 64 107 71 100 2 -2 -6 -26 -17 -53z"/>
<path d="M1058 1828 c-33 -72 -79 -139 -138 -202 -25 -27 -36 -44 -24 -38 33
17 183 181 190 206 3 13 4 38 2 57 l-3 34 -27 -57z"/>
<path d="M891 1813 c-20 -80 -89 -170 -211 -273 -60 -51 -110 -98 -110 -103 0
-6 5 -6 13 0 6 6 55 42 107 80 146 107 230 213 230 289 0 55 -16 59 -29 7z"/>
<path d="M985 1645 c-44 -44 -117 -105 -162 -135 -69 -46 -82 -59 -83 -82 0
-16 2 -28 5 -28 18 0 169 113 221 165 56 55 110 136 102 154 -2 4 -39 -29 -83
-74z"/>
<path d="M929 1501 c-36 -31 -93 -72 -127 -91 -43 -25 -62 -42 -65 -60 -3 -14
-4 -27 -2 -28 8 -8 125 62 172 104 51 44 98 107 91 122 -2 5 -33 -17 -69 -47z"/>
<path d="M905 1394 c-16 -14 -62 -42 -102 -61 -56 -27 -74 -41 -82 -65 -10
-29 -10 -30 17 -23 46 11 132 68 173 114 56 62 52 84 -6 35z"/>
<path d="M851 1275 c-18 -13 -60 -31 -92 -41 -33 -10 -59 -22 -59 -28 0 -5
-10 -20 -22 -34 l-23 -24 30 7 c78 19 182 82 206 126 13 25 2 23 -40 -6z"/>
<path d="M785 1169 c-22 -10 -48 -19 -57 -19 -10 0 -18 -4 -18 -10 0 -5 17
-10 38 -10 37 0 56 12 76 48 9 15 11 15 -39 -9z"/>
<path d="M635 1027 c89 -75 132 -123 161 -183 25 -51 29 -71 29 -142 0 -45 1
-82 3 -82 2 0 15 26 29 57 50 108 26 229 -58 295 -19 16 -75 44 -125 63 l-89
34 50 -42z"/>
<path d="M317 808 c-8 -35 -13 -65 -11 -67 2 -2 16 1 30 7 24 11 25 11 19 -10
-12 -40 -85 -181 -112 -216 -19 -26 -30 -32 -47 -28 -11 3 -30 9 -42 12 -12 3
-27 -1 -36 -9 -8 -8 -23 -17 -34 -19 -10 -2 -20 -12 -23 -23 -2 -15 0 -17 10
-9 8 6 23 14 33 18 16 5 17 4 6 -9 -7 -8 -9 -22 -6 -31 6 -15 8 -15 27 2 18
16 37 19 120 19 77 0 102 -3 109 -15 8 -12 10 -12 16 3 12 31 -3 47 -45 47
-22 0 -42 3 -44 8 -3 4 24 47 60 96 35 49 67 102 70 118 5 28 26 37 38 18 15
-25 22 -6 10 28 -8 20 -16 49 -19 63 -5 21 -16 30 -55 43 -27 9 -52 16 -54 16
-2 0 -11 -28 -20 -62z"/>
<path d="M751 724 c0 -11 3 -14 6 -6 3 7 2 16 -1 19 -3 4 -6 -2 -5 -13z"/>
<path d="M16 343 c5 -10 10 -76 12 -146 2 -97 0 -135 -11 -157 -8 -16 -12 -31
-9 -34 11 -12 170 -6 180 7 12 14 27 67 19 67 -2 0 -18 -7 -33 -15 -16 -8 -41
-15 -56 -15 l-28 0 0 134 c0 106 3 136 15 146 24 20 8 30 -47 30 -44 0 -49 -2
-42 -17z"/>
<path d="M715 342 c-51 -24 -92 -72 -101 -118 -10 -53 1 -119 25 -152 44 -62
150 -89 226 -58 29 13 35 20 35 46 l0 31 -29 -22 c-34 -25 -111 -28 -145 -6
-37 25 -59 82 -53 140 4 42 10 56 41 84 45 42 96 45 150 8 l36 -24 0 27 c0 43
-12 52 -81 58 -50 4 -73 1 -104 -14z"/>
<path d="M339 336 c14 -17 11 -290 -3 -319 -7 -15 -2 -17 44 -17 50 0 52 1 45
23 -5 12 -9 49 -9 82 -1 66 2 68 67 50 26 -7 27 -6 27 35 0 36 -2 41 -17 35
-10 -5 -33 -10 -50 -13 l-33 -4 0 51 0 51 36 0 c19 0 44 -5 56 -11 25 -13 27
-11 21 24 l-5 27 -95 0 c-81 0 -94 -2 -84 -14z"/>
<path d="M235 40 c-9 -15 14 -40 31 -33 22 8 18 43 -5 43 -11 0 -23 -5 -26
-10z"/>
<path d="M492 28 c2 -13 10 -23 18 -23 8 0 16 10 18 23 3 17 -2 22 -18 22 -16
0 -21 -5 -18 -22z"/>
<path d="M940 31 c0 -24 25 -34 40 -16 15 18 5 35 -21 35 -12 0 -19 -7 -19
-19z"/>
</g>
</svg>
