<?xml version="1.0" standalone="no"?>
<!DOCTYPE svg PUBLIC "-//W3C//DTD SVG 20010904//EN"
 "http://www.w3.org/TR/2001/REC-SVG-20010904/DTD/svg10.dtd">
<svg version="1.0" xmlns="http://www.w3.org/2000/svg"
 width="2500.000000pt" height="2500.000000pt" viewBox="0 0 2500.000000 2500.000000"
 preserveAspectRatio="xMidYMid meet">

<g transform="translate(0.000000,2500.000000) scale(0.100000,-0.100000)"
fill="#ffffff" stroke="none">
<path d="M12378 23752 c-320 -659 -910 -1297 -1653 -1787 -407 -268 -910 -517
-1370 -678 -565 -197 -1092 -308 -1705 -358 -337 -28 -924 -11 -1275 37 -998
134 -1905 475 -2770 1042 -88 57 -166 107 -172 109 -17 7 -19 -15841 -3
-16112 19 -317 66 -570 156 -844 217 -660 675 -1158 1340 -1455 496 -222 1067
-325 1794 -326 597 0 1267 -59 1835 -161 903 -162 1716 -454 2385 -857 472
-284 863 -603 1294 -1057 99 -104 185 -191 191 -192 5 0 87 80 180 180 710
755 1524 1276 2525 1618 879 301 1966 468 3045 469 374 0 687 25 965 76 861
158 1496 535 1885 1119 224 335 353 704 422 1199 16 112 17 693 20 8234 2
4461 1 8112 -1 8112 -3 0 -83 -51 -178 -114 -1660 -1089 -3604 -1375 -5483
-806 -802 243 -1535 636 -2166 1160 -150 125 -484 457 -598 595 -228 275 -415
563 -543 833 -27 56 -49 102 -51 102 -1 0 -32 -62 -69 -138z m222 -1592 l93
-290 316 -2 316 -3 -252 -183 c-139 -101 -253 -188 -253 -193 0 -7 89 -285
175 -547 10 -31 11 -40 2 -35 -7 4 -119 85 -249 180 -131 95 -242 173 -247
173 -6 0 -117 -78 -248 -173 -131 -95 -243 -176 -249 -180 -6 -4 31 123 82
281 52 158 94 292 94 299 0 7 -114 95 -252 195 l-253 183 316 3 317 2 91 279
c50 153 91 284 91 290 0 44 28 -27 110 -279z m-5536 -1995 l96 -295 316 -2
316 -3 -179 -130 c-98 -71 -212 -154 -255 -185 l-76 -56 94 -289 c52 -159 93
-292 92 -297 -2 -4 -111 72 -243 168 -132 97 -245 178 -252 181 -7 2 -124 -76
-260 -176 -136 -99 -249 -177 -251 -173 -1 4 40 138 92 297 52 159 91 292 87
295 -4 3 -120 86 -257 185 l-248 180 317 3 316 2 97 295 c53 162 97 295 99
295 2 0 47 -133 99 -295z m6648 -10 c54 -153 98 -282 98 -285 0 -7 -376 -2
-397 5 -10 3 -9 11 1 37 7 18 53 150 101 292 49 143 91 253 93 245 3 -8 49
-140 104 -294z m-8404 -285 c180 0 311 -4 308 -9 -3 -5 -116 -89 -251 -186
-135 -98 -245 -180 -245 -184 0 -3 43 -136 94 -296 52 -159 94 -291 92 -292
-1 -1 -114 79 -250 178 -156 113 -253 178 -263 175 -8 -3 -120 -83 -250 -177
-129 -94 -236 -169 -239 -166 -3 2 36 131 87 285 50 155 89 287 86 294 -2 8
-116 94 -253 193 l-248 180 317 3 316 2 92 283 c50 155 94 287 97 292 4 6 49
-122 102 -282 l95 -293 313 0z m3921 283 l92 -283 316 -2 317 -3 -235 -169
c-129 -94 -243 -177 -255 -186 -21 -15 -21 -16 72 -300 52 -157 94 -290 94
-297 0 -7 -108 66 -241 163 -132 96 -246 177 -254 180 -11 5 -335 -221 -503
-349 -9 -7 -11 -6 -8 4 32 95 186 574 186 579 0 4 -110 87 -245 185 -135 97
-248 181 -251 186 -3 5 129 9 308 9 l314 0 94 290 c51 160 97 287 101 283 4
-5 48 -135 98 -290z m2570 -285 l316 -3 -246 -172 c-233 -162 -254 -175 -385
-226 -173 -68 -351 -148 -490 -221 -59 -31 -109 -55 -110 -53 -2 1 17 65 42
142 24 77 44 145 44 152 0 7 -114 95 -252 195 l-253 183 317 3 317 2 86 266
c48 147 91 278 97 293 10 23 21 -6 106 -266 l96 -293 315 -2z m4067 289 l93
-282 317 -5 318 -5 -248 -180 c-137 -99 -253 -182 -257 -185 -4 -3 35 -136 86
-295 52 -160 95 -293 95 -297 0 -4 -108 71 -241 168 -132 96 -247 178 -255
181 -8 3 -35 -9 -60 -27 -25 -17 -50 -30 -57 -27 -10 4 -225 152 -235 162 -2
1 4 31 13 66 16 60 16 64 -2 77 -10 7 -121 88 -246 179 -125 91 -230 170 -233
174 -3 5 137 9 310 9 224 0 316 3 316 11 0 22 183 570 188 564 3 -3 47 -133
98 -288z m2164 3 l94 -290 314 0 c196 0 311 -4 307 -10 -3 -5 -116 -89 -250
-186 -135 -98 -245 -181 -245 -184 0 -4 42 -137 94 -296 52 -158 94 -290 92
-291 -2 -2 -115 78 -252 177 -136 99 -253 179 -259 176 -7 -2 -121 -84 -254
-181 -134 -97 -244 -175 -246 -173 -2 2 38 134 90 293 52 160 95 293 95 296 0
3 -110 86 -245 184 -135 97 -248 181 -251 186 -3 5 129 9 308 9 l313 0 94 290
c52 160 97 290 101 290 4 0 49 -130 100 -290z m2166 -12 l89 -278 313 0 c171
0 312 -3 312 -7 -1 -5 -113 -89 -250 -187 -138 -99 -250 -182 -250 -185 0 -4
43 -136 95 -296 52 -159 93 -290 92 -291 -1 -1 -112 78 -247 177 -135 98 -250
178 -255 179 -6 0 -120 -80 -255 -179 -135 -98 -246 -175 -248 -171 -1 3 40
137 92 296 l94 289 -103 75 c-56 41 -168 122 -248 180 -81 58 -146 108 -147
113 0 4 139 7 310 7 l309 0 91 278 c111 342 100 311 109 292 4 -8 48 -140 97
-292z m-6326 -553 c592 -74 1111 -245 1469 -483 96 -64 219 -178 205 -192 -5
-4 -364 -153 -799 -331 -434 -177 -792 -324 -794 -325 -4 -3 90 -246 100 -258
4 -5 350 127 771 294 420 166 785 311 811 321 l49 19 -7 -42 c-176 -1121 -848
-1972 -2132 -2701 -349 -199 -623 -318 -930 -406 -385 -110 -701 -158 -1103
-168 -761 -19 -1431 155 -1880 488 -116 86 -295 268 -279 283 4 4 289 120
1111 452 459 185 517 211 512 228 -17 51 -107 256 -114 256 -4 0 -367 -145
-806 -321 -439 -177 -810 -324 -823 -327 l-24 -5 7 99 c19 260 117 586 267
885 293 586 746 1096 1299 1464 298 198 487 294 881 448 511 199 903 295 1384
337 152 13 678 4 825 -15z m-8563 -1755 l312 -5 -250 -180 c-137 -99 -248
-184 -248 -190 0 -5 42 -138 93 -295 52 -157 93 -286 91 -288 -2 -2 -112 76
-246 173 -133 97 -247 179 -253 181 -6 2 -121 -77 -256 -176 -135 -98 -246
-175 -248 -172 -1 4 40 137 92 295 l94 288 -252 182 -251 182 311 3 310 2 94
288 c51 158 95 291 98 297 3 5 49 -123 102 -285 l96 -295 311 -5z m1673 568
c0 -5 41 -136 91 -289 l91 -279 311 -2 310 -3 -199 -144 c-109 -80 -222 -162
-250 -182 l-52 -38 95 -291 c52 -161 92 -294 90 -296 -3 -3 -114 75 -248 172
-134 98 -248 177 -254 177 -6 0 -120 -79 -254 -177 -134 -97 -245 -175 -248
-173 -4 4 172 559 183 579 3 4 -109 89 -248 190 l-253 183 312 3 311 2 96 295
c54 165 101 293 106 290 6 -4 10 -11 10 -17z m2250 -280 l94 -288 63 0 c35 0
63 -2 63 -4 0 -3 -23 -41 -51 -86 -50 -81 -180 -339 -230 -455 l-26 -60 -258
-178 c-141 -98 -258 -177 -260 -175 -1 2 39 131 91 288 51 157 94 290 94 295
0 6 -113 91 -250 190 l-249 180 312 5 312 5 95 292 c52 161 97 289 101 285 3
-4 48 -136 99 -294z m8800 9 l95 -292 313 -5 312 -5 -249 -180 c-138 -99 -250
-184 -250 -190 -1 -5 42 -138 93 -295 52 -157 92 -287 90 -289 -2 -2 -116 79
-253 179 l-251 181 -252 -184 c-139 -101 -254 -183 -256 -182 -1 1 41 136 94
300 57 175 93 300 87 304 -5 3 -118 85 -251 181 l-241 175 312 5 311 5 95 293
c52 160 98 292 101 292 3 0 48 -132 100 -293z m2569 -297 l312 -5 -241 -175
c-133 -96 -247 -178 -253 -181 -6 -5 21 -101 73 -260 114 -348 112 -341 97
-333 -7 4 -115 82 -242 174 -126 92 -235 170 -242 174 -7 4 -112 -66 -260
-174 -136 -99 -249 -177 -250 -173 -2 5 39 138 91 296 l94 288 -72 52 c-39 29
-151 111 -249 182 l-179 130 310 3 310 2 91 283 c51 155 95 289 98 297 3 8 49
-118 102 -280 l97 -295 313 -5z m-4700 190 l62 -190 312 -2 312 -3 -253 -183
c-139 -101 -251 -186 -249 -190 9 -16 188 -574 185 -577 -2 -2 -114 78 -251
176 -154 113 -252 177 -260 173 -6 -5 -119 -86 -251 -181 -131 -96 -240 -173
-242 -171 -1 2 10 50 27 106 22 77 44 126 91 199 215 341 391 729 439 971 7
34 14 62 15 62 1 0 29 -85 63 -190z m-10592 -2190 l311 -5 -249 -180 c-227
-165 -248 -182 -243 -205 2 -14 45 -146 93 -295 49 -148 88 -271 86 -273 -2
-2 -110 75 -242 170 -131 96 -244 177 -250 181 -8 5 -102 -57 -260 -172 -137
-99 -249 -177 -250 -173 -2 4 39 136 91 295 l94 287 -256 185 -255 185 315 0
314 0 94 288 c51 158 96 291 99 297 2 5 48 -123 101 -285 l96 -295 311 -5z
m1759 295 l96 -295 311 -2 311 -3 -251 -182 -251 -182 95 -292 c52 -160 92
-293 90 -296 -3 -2 -115 75 -249 173 -133 97 -248 177 -253 177 -6 0 -120 -79
-254 -177 -134 -97 -245 -175 -248 -173 -2 3 37 133 88 288 50 156 92 288 93
292 0 5 -113 92 -253 193 l-253 184 315 0 315 0 96 295 c53 162 99 295 101
295 2 0 48 -133 101 -295z m8799 0 l96 -295 312 -2 312 -3 -252 -183 -252
-182 24 -73 c13 -39 56 -170 95 -290 40 -120 70 -220 68 -222 -2 -2 -115 77
-251 176 -158 115 -252 177 -260 172 -6 -4 -119 -85 -250 -181 -132 -95 -240
-172 -242 -170 -2 2 39 136 92 297 55 169 91 296 86 300 -6 3 -119 85 -252
181 l-241 175 312 5 311 5 95 293 c53 160 97 292 99 292 1 0 46 -133 98 -295z
m2165 2 l95 -292 313 -5 313 -5 -242 -175 c-133 -96 -247 -178 -253 -182 -7
-5 0 -40 23 -110 101 -303 158 -488 152 -488 -3 0 -117 81 -253 181 l-247 180
-253 -185 c-139 -101 -254 -183 -256 -181 -1 1 41 136 94 300 60 184 93 299
87 303 -6 4 -118 86 -251 182 l-240 175 311 5 311 5 95 293 c52 160 98 292
101 292 3 0 48 -132 100 -293z m2569 -297 l312 -5 -248 -179 c-136 -99 -250
-181 -252 -182 -2 -2 34 -117 79 -256 114 -347 112 -340 97 -332 -7 4 -115 82
-242 174 -126 92 -235 170 -242 173 -7 4 -117 -69 -260 -173 -136 -99 -249
-177 -250 -173 -2 5 40 138 91 296 l94 288 -72 52 c-39 29 -152 111 -250 182
l-180 130 311 3 311 2 98 298 97 297 97 -295 96 -295 313 -5z m-11476 51 c58
-76 164 -169 292 -258 60 -42 114 -80 119 -84 4 -4 -14 -23 -42 -43 l-49 -36
93 -287 c52 -158 93 -290 92 -295 -2 -4 -114 74 -251 173 -157 114 -252 177
-260 173 -6 -5 -119 -86 -250 -182 -132 -95 -240 -172 -242 -170 -1 2 40 131
91 288 51 157 94 290 93 295 0 6 -112 91 -249 190 l-250 180 312 5 313 5 34
122 35 123 39 -73 c21 -39 57 -96 80 -126z m5250 -54 l49 -2 -249 -179 c-136
-99 -250 -181 -251 -182 -2 -1 39 -134 91 -296 53 -161 94 -294 93 -296 -2 -1
-114 79 -250 178 -136 99 -249 180 -251 180 -2 0 -116 -81 -252 -180 -136
-100 -249 -177 -250 -173 -1 4 41 142 95 305 l97 296 140 70 c138 69 361 199
441 257 l40 30 205 -3 c112 -1 226 -3 252 -5z m-3310 -764 c4 -3 -54 -47 -130
-98 -76 -52 -139 -92 -141 -90 -2 1 11 49 28 105 l32 102 102 -7 c55 -4 105
-9 109 -12z m708 -85 c15 -57 25 -105 24 -106 -2 -2 -67 40 -145 95 l-141 98
73 6 c40 3 93 6 118 7 l45 2 26 -102z m8819 -4656 c0 -2658 -3 -4030 -10
-4137 -69 -1055 -522 -1618 -1473 -1829 -279 -62 -503 -84 -977 -96 -905 -22
-1343 -56 -1919 -151 -1502 -247 -2696 -773 -3639 -1602 -110 -97 -125 -107
-140 -95 -9 8 -60 53 -112 99 -1073 957 -2604 1541 -4455 1699 -295 25 -571
38 -1075 50 -514 12 -729 34 -1024 101 -737 170 -1172 561 -1355 1219 -34 119
-53 214 -78 380 -16 107 -18 385 -20 4228 l-3 4112 8140 0 8140 0 0 -3978z"/>
<path d="M13613 18269 c-41 -12 -73 -53 -73 -94 0 -31 138 -387 168 -432 19
-30 72 -44 116 -32 40 11 86 61 86 93 0 35 -158 418 -183 443 -26 27 -70 35
-114 22z"/>
<path d="M13245 18121 c-38 -17 -65 -53 -65 -86 0 -8 36 -106 80 -217 95 -239
105 -253 189 -246 44 4 59 10 79 33 36 43 26 91 -64 309 -66 160 -82 191 -108
207 -38 23 -60 24 -111 0z"/>
<path d="M12903 17989 c-40 -12 -73 -53 -73 -92 0 -43 148 -406 179 -440 24
-26 31 -28 80 -24 46 3 59 9 83 36 15 17 28 42 28 56 0 14 -36 114 -80 222
-101 248 -120 270 -217 242z"/>
<path d="M12555 17853 c-38 -11 -65 -36 -76 -72 -10 -35 -6 -49 72 -242 46
-112 93 -214 106 -226 39 -40 146 -24 173 26 5 11 10 33 10 50 0 39 -146 405
-174 438 -21 24 -73 37 -111 26z"/>
<path d="M12184 17706 c-39 -17 -64 -52 -64 -89 0 -16 36 -117 80 -225 93
-230 106 -247 184 -239 40 3 55 11 78 36 15 17 28 42 28 56 0 24 -122 340
-160 414 -29 57 -83 74 -146 47z"/>
<path d="M11845 17573 c-36 -10 -64 -35 -75 -69 -11 -31 -5 -49 71 -241 45
-114 93 -218 105 -230 40 -40 147 -24 174 26 21 40 9 90 -66 276 -95 236 -117
261 -209 238z"/>
<path d="M11474 17426 c-39 -17 -64 -52 -64 -88 0 -15 36 -117 80 -225 94
-231 106 -248 184 -240 40 3 55 11 78 36 15 17 28 43 28 57 0 14 -37 118 -82
231 -71 176 -87 209 -113 225 -35 21 -68 22 -111 4z"/>
<path d="M11123 17289 c-35 -10 -58 -37 -68 -79 -8 -34 155 -438 187 -462 43
-33 144 -14 168 32 22 41 12 84 -65 275 -97 242 -118 264 -222 234z"/>
<path d="M4920 13784 c-75 -20 -156 -70 -195 -122 -84 -109 -68 -308 34 -424
19 -22 76 -59 149 -97 65 -34 145 -83 178 -109 122 -98 209 -251 233 -409 18
-115 15 -5414 -3 -5513 -17 -94 -35 -136 -77 -185 -51 -57 -79 -65 -231 -64
-176 1 -234 -19 -289 -99 -78 -115 23 -442 219 -702 96 -127 259 -287 404
-395 156 -117 449 -297 643 -395 343 -174 577 -221 728 -147 66 33 90 70 101
152 13 108 -48 365 -123 513 -17 33 -62 102 -101 154 -83 109 -151 240 -183
353 l-22 80 -2 2120 c-1 1773 0 2114 12 2085 405 -1068 1995 -5203 2017 -5245
102 -202 322 -403 532 -487 76 -30 89 -32 206 -33 l125 0 89 44 c146 71 229
173 273 333 16 59 18 312 23 3838 5 3479 6 3778 22 3816 62 154 149 243 364
369 69 41 104 69 129 103 64 89 92 227 64 326 -6 21 -29 58 -51 81 -73 80 7
76 -1249 73 l-1114 -3 -41 -22 c-52 -28 -109 -87 -134 -139 -26 -53 -27 -154
-1 -210 27 -60 71 -99 260 -233 329 -234 442 -350 512 -526 l24 -60 3 -1724
c1 -949 0 -1723 -2 -1720 -2 2 -356 920 -786 2039 -429 1119 -799 2072 -820
2117 -96 199 -252 378 -386 444 l-69 34 -705 2 c-597 2 -713 0 -760 -13z"/>
<path d="M10675 13784 c-75 -18 -137 -54 -172 -101 -25 -33 -28 -44 -28 -117
0 -68 5 -91 28 -140 45 -96 87 -139 205 -208 189 -111 294 -238 345 -415 l22
-78 3 -3475 c2 -2232 -1 -3539 -7 -3655 -11 -192 -25 -263 -70 -361 -39 -84
-91 -137 -183 -191 -157 -90 -232 -187 -233 -298 0 -76 34 -138 107 -196 68
-53 107 -73 245 -120 341 -118 764 -366 1377 -807 89 -63 186 -126 215 -140
111 -51 263 -38 344 29 51 42 69 88 69 179 0 118 -32 187 -157 345 -138 173
-225 372 -273 620 -14 71 -16 346 -19 2333 l-4 2252 594 0 c559 0 598 -1 671
-20 104 -26 167 -62 232 -132 66 -73 114 -170 148 -308 31 -124 68 -185 141
-235 125 -87 272 -60 326 60 18 38 19 98 19 1264 l0 1224 -25 43 c-80 136
-361 112 -454 -40 -14 -22 -35 -103 -61 -233 -56 -284 -97 -391 -184 -471 -86
-80 -61 -77 -771 -77 l-630 0 -3 1173 -2 1172 700 0 c777 0 778 0 915 -65 93
-44 138 -85 249 -224 223 -279 422 -431 577 -439 117 -7 193 46 225 156 34
115 26 144 -280 967 l-274 740 -1934 2 c-1652 1 -1942 -1 -1993 -13z"/>
<path d="M15155 13786 c-85 -37 -132 -117 -122 -206 12 -103 56 -157 341 -425
216 -202 293 -315 348 -511 l23 -79 3 -3005 c2 -2096 0 -3037 -8 -3112 -18
-179 -60 -312 -133 -421 -18 -26 -87 -95 -154 -152 -285 -245 -487 -510 -538
-705 -41 -155 19 -311 134 -352 51 -18 212 -15 306 6 44 10 141 38 216 61 153
49 280 77 455 99 411 52 1025 78 1314 55 240 -19 581 -17 743 5 754 102 1305
508 1657 1221 224 455 323 906 307 1404 -7 214 -16 299 -57 501 -64 318 -189
617 -360 862 -88 126 -281 318 -397 396 -152 100 -295 161 -473 199 -106 23
-415 25 -530 4 -420 -76 -678 -317 -766 -717 -25 -116 -23 -303 4 -417 132
-537 576 -855 1111 -796 188 21 283 19 318 -7 70 -51 89 -184 59 -422 -83
-648 -411 -1062 -926 -1167 -69 -15 -479 -33 -762 -34 l-98 -1 0 3218 c0 3613
-8 3271 80 3447 100 199 280 414 479 569 132 103 162 151 169 267 4 70 2 85
-21 132 -19 38 -38 59 -66 75 l-39 22 -1293 0 c-1045 -1 -1300 -3 -1324 -14z"/>
<path d="M20270 2665 l0 -55 145 0 145 0 0 -380 0 -380 60 0 60 0 0 380 0 380
145 0 145 0 0 55 0 55 -350 0 -350 0 0 -55z"/>
<path d="M21080 2285 l0 -435 55 0 55 0 2 356 3 356 120 -356 120 -357 59 3
58 3 122 359 121 358 3 -361 2 -361 55 0 55 0 0 435 0 435 -80 0 c-65 0 -81
-3 -88 -17 -5 -10 -62 -174 -127 -366 -65 -191 -120 -345 -123 -343 -2 3 -59
166 -126 363 l-121 358 -82 3 -83 3 0 -436z"/>
</g>
</svg>
