<svg viewBox="0 0 243 600" xmlns="http://www.w3.org/2000/svg" xml:space="preserve" style="fill-rule:evenodd;clip-rule:evenodd;stroke-linejoin:round;stroke-miterlimit:2">
    <path d="M0 345.554c-1.269-.241-3.828-.241-6.387 2.559-4.069 4.354-5.928 10.324-5.622 17.587.065 1.86.35 2.909.875 4.419.919 2.669 3.194 4.397 4.878 4.703 1.968.35 4.178-.809 6.256-3.26 4.528-5.336 6.497-15.202 4.244-21.459-.919-2.602-2.428-4.243-4.178-4.593m149.097 65.186c1.159-5.862-.109-9.975-1.509-12.468-1.794-3.194-4.747-5.403-8.116-6.213l-3.653-.743c-3.369-.7-8.422-1.685-15.947-3.588-10.083-2.559-18.789 2.1-23.602 12.469 4.922 1.443 9.8 2.777 14.502 3.937.745-3.653.919-6.256.919-6.256.11-1.619 1.445-2.844 3.085-2.734 1.619.109 2.843 1.443 2.734 3.062 0 .24-.174 3.128-1.093 7.306.919.241 1.859.46 2.778.634.918.241 1.924.394 2.777.635.81-4.069 1.334-7.547 1.4-7.59.241-1.575 1.751-2.669 3.304-2.428 1.575.24 2.668 1.749 2.428 3.302 0 .285-.591 3.762-1.445 7.898 1.926.393 3.764.7 5.513.983.635-3.477.81-6.321.81-6.387.066-1.619 1.443-2.843 3.019-2.734 1.618.066 2.843 1.444 2.734 3.019 0 .24-.176 3.193-.876 6.955 4.004.526 7.372.81 10.151.985m-53.637 7.044c2.253 4.878 6.212 7.722 9.165 8.705 3.828 1.336 13.913 3.436 22.268 4.353 9.232 1.051 16.363-4.111 20.476-14.436-3.085-.175-6.387-.525-9.8-.985-.634 2.1-1.444 4.179-2.494 5.972a2.906 2.906 0 0 1-3.938 1.094 2.907 2.907 0 0 1-1.093-3.938c.7-1.224 1.268-2.603 1.75-4.068-1.794-.285-3.588-.635-5.403-.985-.634 2.429-1.334 4.704-2.034 6.388-.635 1.443-2.385 2.143-3.828 1.509-1.444-.634-2.144-2.385-1.51-3.828.591-1.4 1.159-3.259 1.684-5.272-.918-.174-1.859-.415-2.778-.634-.984-.24-1.968-.459-2.953-.7a48.103 48.103 0 0 1-1.925 5.162c-.634 1.444-2.318 2.144-3.762 1.575-1.444-.634-2.144-2.318-1.575-3.762a38.05 38.05 0 0 0 1.575-4.287 353.94 353.94 0 0 1-14.962-4.113c-1.225 5.338-.176 9.515 1.094 12.25m64.552-73.849c-4.353-11.485-19.032-19.665-38.347-24.018-35.743-8.072-82.664 5.272-112.479 30.405 1.159 4.594.809 10.041-.744 15.028 21.525 11.55 52.783 24.084 82.314 33.075 6.957-15.946 20.256-18.965 30.625-16.429 7.415 1.86 12.184 2.845 15.727 3.545l3.829.809c4.922 1.159 9.275 4.418 11.834 8.99 1.86 3.26 3.543 8.356 2.384 15.379 3.653-.241 5.403-.81 5.797-1.335 3.894-11.025 5.753-22.969 5.228-35.394a94.542 94.542 0 0 0-6.147-30.055h-.021Zm-33.644 92.705c-8.072-.875-18.855-3.019-23.559-4.638-5.272-1.794-9.909-6.213-12.534-11.768-1.05-2.319-2.034-5.338-2.209-9.056-.11-2.21.109-4.638.743-7.306-29.596-8.991-60.921-21.525-82.664-33.184-.744 1.4-1.619 2.734-2.603 3.893C1.859 376.55 0 377.95-1.925 378.76c2.034 18.155 8.356 35.918 18.397 51.405 13.277 20.54 31.433 34.627 50.989 39.046 6.957 1.575 16.013 3.543 24.128 1.75 30.1-6.671 54.642-27.496 66.608-54.883-1.4.241-3.019.394-4.702.458-6.847 20.082-21.285 20.759-27.257 20.125M-13.497 351.81c.985-2.275 2.21-4.288 3.653-6.037 1.16-1.4 2.428-2.495 3.763-3.304 3.543-16.537 10.959-31.214 21.765-42.35-16.122 11.485-28.546 27.848-35.043 46.878.875 1.16 3.194 2.953 5.797 4.813m-1.75 5.644c-2.319-1.685-4.353-3.26-5.797-4.594-2.494 9.166-3.653 18.856-3.259 28.896.065 2.034.24 4.004.415 5.972 1.444-5.928 4.288-12.075 8.356-18.397-.743-3.718-.634-7.896.241-11.9m7.656 21.831c-2.078-.525-3.937-1.859-5.337-3.762-7.088 10.96-10.085 20.759-7.481 29.531 10.915 36.902 43.443 64.114 82.445 67.746-37.253-11.31-64.793-50.115-69.605-93.515H-7.7ZM38.193-72.143c0-5.337-.591-10.084-1.619-14.437 0 0 8.597-.459 8.597-10.915 0-8.597-5.753-14.438-7.262-14.438-1.225 0-1.575 1.335-4.244 1.335-6.562 0-7.022-8.356-7.022-8.356h3.019c18.747 0 36.093 5.687 36.093 46.877 0 15.247-1.444 28.765-2.734 40.731-1.269 11.834-2.428 22.793-2.078 33.533 0 0-32.659-3.828-32.659-28.415 0-15.946 9.909-19.84 9.909-45.893v-.022ZM90.102 200c0 32.265-13.76 58.471-21.7 66.433-24.587 24.587-44.952 6.672-45.127 31.39-11.2 10.106-19.206 25.528-23.144 43.05.241 0 .46.065.744.109 2.319.415 4.287 1.749 5.797 3.828 31.259-25.462 79.427-38.872 116.198-30.581 11.725 2.669 21.634 6.956 29.114 13.585-11.308-18.266-28.589-32.375-49.02-39.682-4.879-1.728-13.453-3.717-13.453-19.423 0-29.357 32.134-6.564 53.265-38.522 1.049-1.575-.46-2.954-1.685-1.75-6.387 6.387-22.093 10.784-30.449 10.784-8.357 0-11.419-1.925-11.419-1.925 7.832-15.662 17.632-28.94 17.632-28.94C97.189 188.691 130.263 80.74 217.74 80.74c0-25.069-2.668-44.603-5.862-59.107-2.078.526-18.572 4.419-19.316.919-.634-3.083 12.119-9.755 16.538-11.899-4.287-14.962-8.597-21.984-8.597-21.984-75.008 23.602-59.936 85.682-78.202 85.682-11.899 0-21.24-9.274-24.543-12.577C52.98 16.997 73.849-12.666 73.849-72.121c.065-40.096-15.553-55.102-44.253-55.102-28.699 0-39.046 12.447-39.046 12.447s39.396 1.268 39.396 42.633S-18.79-16.909-18.79 38.084c0 91.479 108.957 89.751 108.957 161.916" style="fill:#ffffff;fill-rule:nonzero" transform="translate(24.444 127.223)" />
</svg>